# xmcd CD database file
#
# Track frame offsets:
#	150
#	2059
#	22569
#	44493
#	69986
#	94769
#	115567
#	134410
#	156567
#	178924
#	202672
#
# Disc length: 2868 seconds
#
# Revision: 0
# Processed by: cddbd v1.5.1PL2 Copyright (c) Steve Scherf et al.
# Submitted via: CDex 1.51
#
DISCID=850b320b
DTITLE=Pomeranians - Dig The Slack Music!
DYEAR=2003
DGENRE=Pop
TTITLE0=Dig The Slack Music!
TTITLE1=始まりはここから
TTITLE2=僕の好きな言葉
TTITLE3=Swingin' Easy!
TTITLE4=One Day Love
TTITLE5=Air Pocket
TTITLE6=Free Style
TTITLE7=夜空を
TTITLE8=太陽を越えて
TTITLE9=ロックンロールスター
TTITLE10=Back To Chinese City
EXTD=YEAR: 2003
EXTT0=
EXTT1=
EXTT2=
EXTT3=
EXTT4=
EXTT5=
EXTT6=
EXTT7=
EXTT8=
EXTT9=
EXTT10=
PLAYORDER=
